# xmcd
#
# Track frame offsets:
#	150
#	19934
#	39711
#	70296
#	89676
#	110612
#	133872
#	152345
#	172896
#	191853
#	216479
#	236233
#	254080
#	271665
#	294062
#	313370
#
# Disc length: 4416 seconds
#
# Revision: 1
# Processed by: cddbd v1.5.1PL0 Copyright (c) Steve Scherf et al.
# Submitted via: audiograbber 1.80
#
DISCID=f7113e10
DTITLE=Toni Braxton - Ballads. 90x Hits.
DYEAR=1900
DGENRE=
TTITLE0=Toni Braxton - Un' break me heart
TTITLE1=Whitney Houston - I will always love You
TTITLE2=George Michael - Jesus to a child
TTITLE3=Joe Cocker - My father's son
TTITLE4=Bryan Adams and Sting and Rod Steward - All for love
TTITLE5=Scorpions - Wind of change
TTITLE6=Chris Norman - Midnight lady
TTITLE7=The Rolling Stones - Angie
TTITLE8=Chris De Burgh - The lady in red
TTITLE9=Sade - Cherish the day
TTITLE10=Chris Rea - Road to hell
TTITLE11=Lauren Christie - Colour of the night
TTITLE12=Julio Iglesias - Nostalgie
TTITLE13=The Beloved - Sweet harmony
TTITLE14=Steve Wonder - I just call to say I love You
TTITLE15=Duran Duran - Come undone
EXTD=
EXTT0=
EXTT1=
EXTT2=
EXTT3=
EXTT4=
EXTT5=
EXTT6=
EXTT7=
EXTT8=
EXTT9=
EXTT10=
EXTT11=
EXTT12=
EXTT13=
EXTT14=
EXTT15=
PLAYORDER=
